<mxfile host="app.diagrams.net" agent="Mozilla/5.0 (Windows NT 10.0; Win64; x64) AppleWebKit/537.36 (KHTML, like Gecko) Chrome/134.0.0.0 YaBrowser/25.4.0.0 Safari/537.36" version="27.1.4">
  <diagram id="zIX6xKBGt8Bks-zPBkou" name="Страница — 1">
    <mxGraphModel dx="1907" dy="680" grid="0" gridSize="10" guides="1" tooltips="1" connect="1" arrows="1" fold="1" page="1" pageScale="1" pageWidth="827" pageHeight="1169" math="0" shadow="0">
      <root>
        <mxCell id="0" />
        <mxCell id="1" parent="0" />
        <mxCell id="KnovqFKW17YyjUqn1sw9-68" value="GUI" style="swimlane;fontStyle=0;childLayout=stackLayout;horizontal=1;startSize=26;fillColor=none;horizontalStack=0;resizeParent=1;resizeParentMax=0;resizeLast=0;collapsible=1;marginBottom=0;html=1;labelBackgroundColor=none;strokeColor=#0F8B8D;fontColor=#143642;" vertex="1" parent="1">
          <mxGeometry x="-696" y="257" width="140" height="156" as="geometry">
            <mxRectangle x="-720" y="809" width="54" height="26" as="alternateBounds" />
          </mxGeometry>
        </mxCell>
        <mxCell id="KnovqFKW17YyjUqn1sw9-69" value="- nuclide: String" style="text;strokeColor=none;fillColor=none;align=left;verticalAlign=top;spacingLeft=4;spacingRight=4;overflow=hidden;rotatable=0;points=[[0,0.5],[1,0.5]];portConstraint=eastwest;whiteSpace=wrap;html=1;labelBackgroundColor=none;fontColor=#143642;" vertex="1" parent="KnovqFKW17YyjUqn1sw9-68">
          <mxGeometry y="26" width="140" height="26" as="geometry" />
        </mxCell>
        <mxCell id="KnovqFKW17YyjUqn1sw9-75" value="- radius: double" style="text;strokeColor=none;fillColor=none;align=left;verticalAlign=top;spacingLeft=4;spacingRight=4;overflow=hidden;rotatable=0;points=[[0,0.5],[1,0.5]];portConstraint=eastwest;whiteSpace=wrap;html=1;labelBackgroundColor=none;fontColor=#143642;" vertex="1" parent="KnovqFKW17YyjUqn1sw9-68">
          <mxGeometry y="52" width="140" height="26" as="geometry" />
        </mxCell>
        <mxCell id="KnovqFKW17YyjUqn1sw9-70" value="- thickness: double" style="text;strokeColor=none;fillColor=none;align=left;verticalAlign=top;spacingLeft=4;spacingRight=4;overflow=hidden;rotatable=0;points=[[0,0.5],[1,0.5]];portConstraint=eastwest;whiteSpace=wrap;html=1;labelBackgroundColor=none;fontColor=#143642;" vertex="1" parent="KnovqFKW17YyjUqn1sw9-68">
          <mxGeometry y="78" width="140" height="26" as="geometry" />
        </mxCell>
        <mxCell id="KnovqFKW17YyjUqn1sw9-95" value="- exposure time: double" style="text;strokeColor=none;fillColor=none;align=left;verticalAlign=top;spacingLeft=4;spacingRight=4;overflow=hidden;rotatable=0;points=[[0,0.5],[1,0.5]];portConstraint=eastwest;whiteSpace=wrap;html=1;labelBackgroundColor=none;fontColor=#143642;" vertex="1" parent="KnovqFKW17YyjUqn1sw9-68">
          <mxGeometry y="104" width="140" height="26" as="geometry" />
        </mxCell>
        <mxCell id="KnovqFKW17YyjUqn1sw9-74" value="- excelTable: xlsx" style="text;strokeColor=none;fillColor=none;align=left;verticalAlign=top;spacingLeft=4;spacingRight=4;overflow=hidden;rotatable=0;points=[[0,0.5],[1,0.5]];portConstraint=eastwest;whiteSpace=wrap;html=1;labelBackgroundColor=none;fontColor=#143642;" vertex="1" parent="KnovqFKW17YyjUqn1sw9-68">
          <mxGeometry y="130" width="140" height="26" as="geometry" />
        </mxCell>
        <mxCell id="KnovqFKW17YyjUqn1sw9-73" value="&lt;font style=&quot;font-size: 14px;&quot;&gt;&lt;b&gt;Activation integral calculating app&lt;/b&gt;&lt;/font&gt;" style="rounded=0;whiteSpace=wrap;html=1;labelBackgroundColor=none;fillColor=#FAE5C7;strokeColor=#0F8B8D;fontColor=#143642;" vertex="1" parent="1">
          <mxGeometry x="-549" y="134" width="280" height="80" as="geometry" />
        </mxCell>
        <mxCell id="KnovqFKW17YyjUqn1sw9-103" style="edgeStyle=none;curved=1;rounded=0;orthogonalLoop=1;jettySize=auto;html=1;exitX=1;exitY=0.25;exitDx=0;exitDy=0;entryX=0;entryY=0.25;entryDx=0;entryDy=0;fontSize=12;startSize=8;endSize=8;labelBackgroundColor=none;strokeColor=#A8201A;fontColor=default;" edge="1" parent="1" source="KnovqFKW17YyjUqn1sw9-78" target="KnovqFKW17YyjUqn1sw9-99">
          <mxGeometry relative="1" as="geometry">
            <Array as="points">
              <mxPoint x="-262" y="356" />
            </Array>
          </mxGeometry>
        </mxCell>
        <mxCell id="KnovqFKW17YyjUqn1sw9-78" value="DataProcessor" style="swimlane;fontStyle=0;childLayout=stackLayout;horizontal=1;startSize=26;fillColor=none;horizontalStack=0;resizeParent=1;resizeParentMax=0;resizeLast=0;collapsible=1;marginBottom=0;html=1;labelBackgroundColor=none;strokeColor=#0F8B8D;fontColor=#143642;" vertex="1" parent="1">
          <mxGeometry x="-442" y="339" width="140" height="78" as="geometry" />
        </mxCell>
        <mxCell id="KnovqFKW17YyjUqn1sw9-79" value="- sampleData: Map" style="text;strokeColor=none;fillColor=none;align=left;verticalAlign=top;spacingLeft=4;spacingRight=4;overflow=hidden;rotatable=0;points=[[0,0.5],[1,0.5]];portConstraint=eastwest;whiteSpace=wrap;html=1;labelBackgroundColor=none;fontColor=#143642;" vertex="1" parent="KnovqFKW17YyjUqn1sw9-78">
          <mxGeometry y="26" width="140" height="26" as="geometry" />
        </mxCell>
        <mxCell id="KnovqFKW17YyjUqn1sw9-80" value="- measurements: List" style="text;strokeColor=none;fillColor=none;align=left;verticalAlign=top;spacingLeft=4;spacingRight=4;overflow=hidden;rotatable=0;points=[[0,0.5],[1,0.5]];portConstraint=eastwest;whiteSpace=wrap;html=1;labelBackgroundColor=none;fontColor=#143642;" vertex="1" parent="KnovqFKW17YyjUqn1sw9-78">
          <mxGeometry y="52" width="140" height="26" as="geometry" />
        </mxCell>
        <mxCell id="KnovqFKW17YyjUqn1sw9-83" style="edgeStyle=none;curved=1;rounded=0;orthogonalLoop=1;jettySize=auto;html=1;exitX=1;exitY=0.5;exitDx=0;exitDy=0;entryX=0;entryY=0;entryDx=0;entryDy=0;fontSize=12;startSize=8;endSize=8;labelBackgroundColor=none;strokeColor=#A8201A;fontColor=default;" edge="1" parent="1" source="KnovqFKW17YyjUqn1sw9-75" target="KnovqFKW17YyjUqn1sw9-78">
          <mxGeometry relative="1" as="geometry">
            <Array as="points">
              <mxPoint x="-488" y="344" />
            </Array>
          </mxGeometry>
        </mxCell>
        <mxCell id="KnovqFKW17YyjUqn1sw9-85" style="edgeStyle=none;curved=1;rounded=0;orthogonalLoop=1;jettySize=auto;html=1;exitX=1;exitY=0.5;exitDx=0;exitDy=0;entryX=0;entryY=0.25;entryDx=0;entryDy=0;fontSize=12;startSize=8;endSize=8;labelBackgroundColor=none;strokeColor=#A8201A;fontColor=default;" edge="1" parent="1" source="KnovqFKW17YyjUqn1sw9-70" target="KnovqFKW17YyjUqn1sw9-78">
          <mxGeometry relative="1" as="geometry">
            <Array as="points">
              <mxPoint x="-498" y="368" />
            </Array>
          </mxGeometry>
        </mxCell>
        <mxCell id="KnovqFKW17YyjUqn1sw9-87" value="DataBase" style="swimlane;fontStyle=0;childLayout=stackLayout;horizontal=1;startSize=26;fillColor=none;horizontalStack=0;resizeParent=1;resizeParentMax=0;resizeLast=0;collapsible=1;marginBottom=0;html=1;labelBackgroundColor=none;strokeColor=#0F8B8D;fontColor=#143642;" vertex="1" parent="1">
          <mxGeometry x="-753" y="475" width="150" height="78" as="geometry" />
        </mxCell>
        <mxCell id="KnovqFKW17YyjUqn1sw9-88" value="- gammaLine: double" style="text;strokeColor=none;fillColor=none;align=left;verticalAlign=top;spacingLeft=4;spacingRight=4;overflow=hidden;rotatable=0;points=[[0,0.5],[1,0.5]];portConstraint=eastwest;whiteSpace=wrap;html=1;labelBackgroundColor=none;fontColor=#143642;" vertex="1" parent="KnovqFKW17YyjUqn1sw9-87">
          <mxGeometry y="26" width="150" height="26" as="geometry" />
        </mxCell>
        <mxCell id="KnovqFKW17YyjUqn1sw9-89" value="- materialProperties: Map" style="text;strokeColor=none;fillColor=none;align=left;verticalAlign=top;spacingLeft=4;spacingRight=4;overflow=hidden;rotatable=0;points=[[0,0.5],[1,0.5]];portConstraint=eastwest;whiteSpace=wrap;html=1;labelBackgroundColor=none;fontColor=#143642;" vertex="1" parent="KnovqFKW17YyjUqn1sw9-87">
          <mxGeometry y="52" width="150" height="26" as="geometry" />
        </mxCell>
        <mxCell id="KnovqFKW17YyjUqn1sw9-91" style="edgeStyle=none;curved=1;rounded=0;orthogonalLoop=1;jettySize=auto;html=1;exitX=0;exitY=0.5;exitDx=0;exitDy=0;entryX=0;entryY=0;entryDx=0;entryDy=0;fontSize=12;startSize=8;endSize=8;labelBackgroundColor=none;strokeColor=#A8201A;fontColor=default;" edge="1" parent="1" source="KnovqFKW17YyjUqn1sw9-69" target="KnovqFKW17YyjUqn1sw9-87">
          <mxGeometry relative="1" as="geometry">
            <Array as="points">
              <mxPoint x="-732" y="373" />
            </Array>
          </mxGeometry>
        </mxCell>
        <mxCell id="KnovqFKW17YyjUqn1sw9-92" style="edgeStyle=none;curved=1;rounded=0;orthogonalLoop=1;jettySize=auto;html=1;exitX=1;exitY=0.5;exitDx=0;exitDy=0;fontSize=12;startSize=8;endSize=8;entryX=0.386;entryY=1.014;entryDx=0;entryDy=0;entryPerimeter=0;labelBackgroundColor=none;strokeColor=#A8201A;fontColor=default;" edge="1" parent="1" source="KnovqFKW17YyjUqn1sw9-88" target="KnovqFKW17YyjUqn1sw9-80">
          <mxGeometry relative="1" as="geometry">
            <mxPoint x="-397" y="424" as="targetPoint" />
            <Array as="points">
              <mxPoint x="-461" y="439" />
            </Array>
          </mxGeometry>
        </mxCell>
        <mxCell id="KnovqFKW17YyjUqn1sw9-93" style="edgeStyle=none;curved=1;rounded=0;orthogonalLoop=1;jettySize=auto;html=1;exitX=1;exitY=0.5;exitDx=0;exitDy=0;entryX=0.501;entryY=0.94;entryDx=0;entryDy=0;entryPerimeter=0;fontSize=12;startSize=8;endSize=8;labelBackgroundColor=none;strokeColor=#A8201A;fontColor=default;" edge="1" parent="1" source="KnovqFKW17YyjUqn1sw9-89" target="KnovqFKW17YyjUqn1sw9-80">
          <mxGeometry relative="1" as="geometry">
            <Array as="points">
              <mxPoint x="-434" y="492" />
            </Array>
          </mxGeometry>
        </mxCell>
        <mxCell id="KnovqFKW17YyjUqn1sw9-96" style="edgeStyle=none;curved=1;rounded=0;orthogonalLoop=1;jettySize=auto;html=1;exitX=1;exitY=0.5;exitDx=0;exitDy=0;entryX=0;entryY=0.5;entryDx=0;entryDy=0;fontSize=12;startSize=8;endSize=8;labelBackgroundColor=none;strokeColor=#A8201A;fontColor=default;" edge="1" parent="1" source="KnovqFKW17YyjUqn1sw9-74" target="KnovqFKW17YyjUqn1sw9-80">
          <mxGeometry relative="1" as="geometry">
            <Array as="points">
              <mxPoint x="-477" y="425" />
            </Array>
          </mxGeometry>
        </mxCell>
        <mxCell id="KnovqFKW17YyjUqn1sw9-98" style="edgeStyle=none;curved=1;rounded=0;orthogonalLoop=1;jettySize=auto;html=1;exitX=1;exitY=0.5;exitDx=0;exitDy=0;entryX=0;entryY=0.5;entryDx=0;entryDy=0;fontSize=12;startSize=8;endSize=8;labelBackgroundColor=none;strokeColor=#A8201A;fontColor=default;" edge="1" parent="1" source="KnovqFKW17YyjUqn1sw9-95" target="KnovqFKW17YyjUqn1sw9-79">
          <mxGeometry relative="1" as="geometry">
            <Array as="points">
              <mxPoint x="-495" y="400" />
            </Array>
          </mxGeometry>
        </mxCell>
        <mxCell id="KnovqFKW17YyjUqn1sw9-99" value="ExcelExporter" style="swimlane;fontStyle=0;childLayout=stackLayout;horizontal=1;startSize=26;fillColor=none;horizontalStack=0;resizeParent=1;resizeParentMax=0;resizeLast=0;collapsible=1;marginBottom=0;html=1;labelBackgroundColor=none;strokeColor=#0F8B8D;fontColor=#143642;" vertex="1" parent="1">
          <mxGeometry x="-226" y="371" width="140" height="52" as="geometry" />
        </mxCell>
        <mxCell id="KnovqFKW17YyjUqn1sw9-100" value="- results: xlsx" style="text;strokeColor=none;fillColor=none;align=left;verticalAlign=top;spacingLeft=4;spacingRight=4;overflow=hidden;rotatable=0;points=[[0,0.5],[1,0.5]];portConstraint=eastwest;whiteSpace=wrap;html=1;labelBackgroundColor=none;fontColor=#143642;" vertex="1" parent="KnovqFKW17YyjUqn1sw9-99">
          <mxGeometry y="26" width="140" height="26" as="geometry" />
        </mxCell>
      </root>
    </mxGraphModel>
  </diagram>
</mxfile>
